<mxfile host="app.diagrams.net" agent="Mozilla/5.0 (Windows NT 10.0; Win64; x64) AppleWebKit/537.36 (KHTML, like Gecko) Chrome/129.0.0.0 Safari/537.36" version="24.8.0">
  <diagram name="Page-1" id="q8BxAm_sOzKsZmOyvroV">
    <mxGraphModel dx="794" dy="446" grid="1" gridSize="10" guides="1" tooltips="1" connect="1" arrows="1" fold="1" page="1" pageScale="1" pageWidth="850" pageHeight="1100" math="0" shadow="0">
      <root>
        <mxCell id="0" />
        <mxCell id="1" parent="0" />
        <mxCell id="BXD6T_1uRKeesXthLEPj-39" value="" style="rounded=0;whiteSpace=wrap;html=1;fillColor=#dae8fc;dashed=1;strokeColor=none;" parent="1" vertex="1">
          <mxGeometry x="408" y="177" width="180" height="130" as="geometry" />
        </mxCell>
        <mxCell id="1jBT1yOzD8v8w3udIk85-1" value="" style="rounded=0;whiteSpace=wrap;html=1;fillColor=none;dashed=1;strokeColor=#7EA6E0;" vertex="1" parent="1">
          <mxGeometry x="417" y="187" width="73" height="110" as="geometry" />
        </mxCell>
        <mxCell id="BXD6T_1uRKeesXthLEPj-6" value="" style="sketch=0;outlineConnect=0;fontColor=#232F3E;gradientColor=none;fillColor=#232F3D;strokeColor=none;dashed=0;verticalLabelPosition=bottom;verticalAlign=top;align=center;html=1;fontSize=12;fontStyle=0;aspect=fixed;pointerEvents=1;shape=mxgraph.aws4.mobile_client;" parent="1" vertex="1">
          <mxGeometry x="268" y="204.71" width="15" height="28.58" as="geometry" />
        </mxCell>
        <mxCell id="BXD6T_1uRKeesXthLEPj-40" value="" style="rounded=0;whiteSpace=wrap;html=1;dashed=1;strokeColor=#E6E6E6;" parent="1" vertex="1">
          <mxGeometry x="138" y="177" width="270" height="130" as="geometry" />
        </mxCell>
        <mxCell id="BXD6T_1uRKeesXthLEPj-41" value="" style="rounded=0;whiteSpace=wrap;html=1;fillColor=none;dashed=1;strokeColor=#7EA6E0;" parent="1" vertex="1">
          <mxGeometry x="147" y="187" width="133" height="110" as="geometry" />
        </mxCell>
        <mxCell id="BXD6T_1uRKeesXthLEPj-42" value="" style="image;aspect=fixed;html=1;points=[];align=center;fontSize=12;image=img/lib/azure2/other/Reserved_Capacity_Groups.svg;" parent="1" vertex="1">
          <mxGeometry x="152" y="191.74" width="36" height="42.26" as="geometry" />
        </mxCell>
        <mxCell id="BXD6T_1uRKeesXthLEPj-43" value="" style="image;sketch=0;aspect=fixed;html=1;points=[];align=center;fontSize=12;image=img/lib/mscae/App_Service_Mobile_App.svg;" parent="1" vertex="1">
          <mxGeometry x="160" y="267.58" width="18" height="26.48" as="geometry" />
        </mxCell>
        <mxCell id="BXD6T_1uRKeesXthLEPj-44" value="" style="sketch=0;html=1;aspect=fixed;strokeColor=none;shadow=0;fillColor=#3B8DF1;verticalAlign=top;labelPosition=center;verticalLabelPosition=bottom;shape=mxgraph.gcp2.gear_load" parent="1" vertex="1">
          <mxGeometry x="231" y="226" width="40" height="36.8" as="geometry" />
        </mxCell>
        <mxCell id="BXD6T_1uRKeesXthLEPj-45" value="" style="sketch=0;outlineConnect=0;fontColor=#232F3E;gradientColor=none;fillColor=#7AA116;strokeColor=none;dashed=0;verticalLabelPosition=bottom;verticalAlign=top;align=center;html=1;fontSize=12;fontStyle=0;aspect=fixed;pointerEvents=1;shape=mxgraph.aws4.iot_analytics_data_store;" parent="1" vertex="1">
          <mxGeometry x="325" y="185" width="27" height="39.03" as="geometry" />
        </mxCell>
        <mxCell id="BXD6T_1uRKeesXthLEPj-46" value="" style="outlineConnect=0;dashed=0;verticalLabelPosition=bottom;verticalAlign=top;align=center;html=1;shape=mxgraph.aws3.worker;fillColor=#D9A741;gradientColor=none;" parent="1" vertex="1">
          <mxGeometry x="320.5" y="259" width="36" height="40" as="geometry" />
        </mxCell>
        <mxCell id="BXD6T_1uRKeesXthLEPj-47" value="" style="sketch=0;points=[[0,0,0],[0.25,0,0],[0.5,0,0],[0.75,0,0],[1,0,0],[0,1,0],[0.25,1,0],[0.5,1,0],[0.75,1,0],[1,1,0],[0,0.25,0],[0,0.5,0],[0,0.75,0],[1,0.25,0],[1,0.5,0],[1,0.75,0]];outlineConnect=0;fontColor=#232F3E;fillColor=#8C4FFF;strokeColor=#ffffff;dashed=0;verticalLabelPosition=bottom;verticalAlign=top;align=center;html=1;fontSize=12;fontStyle=0;aspect=fixed;shape=mxgraph.aws4.resourceIcon;resIcon=mxgraph.aws4.api_gateway;" parent="1" vertex="1">
          <mxGeometry x="435" y="214" width="40" height="40" as="geometry" />
        </mxCell>
        <mxCell id="BXD6T_1uRKeesXthLEPj-48" value="" style="endArrow=classic;html=1;rounded=0;strokeColor=#050505;" parent="1" edge="1">
          <mxGeometry width="50" height="50" relative="1" as="geometry">
            <mxPoint x="169" y="264" as="sourcePoint" />
            <mxPoint x="169" y="236" as="targetPoint" />
          </mxGeometry>
        </mxCell>
        <mxCell id="BXD6T_1uRKeesXthLEPj-49" value="" style="endArrow=classic;html=1;rounded=0;entryX=0.265;entryY=0.313;entryDx=0;entryDy=0;entryPerimeter=0;strokeColor=#050505;" parent="1" edge="1">
          <mxGeometry width="50" height="50" relative="1" as="geometry">
            <mxPoint x="196" y="217" as="sourcePoint" />
            <mxPoint x="230" y="236" as="targetPoint" />
          </mxGeometry>
        </mxCell>
        <mxCell id="BXD6T_1uRKeesXthLEPj-50" value="" style="verticalLabelPosition=bottom;verticalAlign=top;html=1;shape=mxgraph.infographic.shadedCube;isoAngle=15;fillColor=#10739E;strokeColor=none;" parent="1" vertex="1">
          <mxGeometry x="534" y="213.4" width="40" height="40" as="geometry" />
        </mxCell>
        <mxCell id="BXD6T_1uRKeesXthLEPj-51" value="" style="endArrow=classic;html=1;rounded=0;entryX=0.265;entryY=0.313;entryDx=0;entryDy=0;entryPerimeter=0;strokeColor=#050505;" parent="1" edge="1">
          <mxGeometry width="50" height="50" relative="1" as="geometry">
            <mxPoint x="285" y="227" as="sourcePoint" />
            <mxPoint x="319" y="213" as="targetPoint" />
          </mxGeometry>
        </mxCell>
        <mxCell id="BXD6T_1uRKeesXthLEPj-52" value="" style="endArrow=classic;html=1;rounded=0;entryX=0.265;entryY=0.313;entryDx=0;entryDy=0;entryPerimeter=0;strokeColor=#050505;" parent="1" edge="1">
          <mxGeometry width="50" height="50" relative="1" as="geometry">
            <mxPoint x="284" y="252" as="sourcePoint" />
            <mxPoint x="318" y="261" as="targetPoint" />
          </mxGeometry>
        </mxCell>
        <mxCell id="BXD6T_1uRKeesXthLEPj-53" value="" style="endArrow=classic;html=1;rounded=0;entryX=0.265;entryY=0.313;entryDx=0;entryDy=0;entryPerimeter=0;strokeColor=#050505;" parent="1" edge="1">
          <mxGeometry width="50" height="50" relative="1" as="geometry">
            <mxPoint x="399" y="272" as="sourcePoint" />
            <mxPoint x="433" y="257" as="targetPoint" />
          </mxGeometry>
        </mxCell>
        <mxCell id="BXD6T_1uRKeesXthLEPj-54" value="" style="endArrow=classic;html=1;rounded=0;entryX=0.265;entryY=0.313;entryDx=0;entryDy=0;entryPerimeter=0;strokeColor=#050505;" parent="1" edge="1">
          <mxGeometry width="50" height="50" relative="1" as="geometry">
            <mxPoint x="493" y="234" as="sourcePoint" />
            <mxPoint x="527" y="234" as="targetPoint" />
          </mxGeometry>
        </mxCell>
        <mxCell id="BXD6T_1uRKeesXthLEPj-55" value="1A" style="text;html=1;align=center;verticalAlign=middle;whiteSpace=wrap;rounded=0;fontSize=7;" parent="1" vertex="1">
          <mxGeometry x="171" y="186.5" width="40" height="20" as="geometry" />
        </mxCell>
        <mxCell id="BXD6T_1uRKeesXthLEPj-56" value="Processor" style="text;html=1;align=center;verticalAlign=middle;whiteSpace=wrap;rounded=0;fontSize=7;" parent="1" vertex="1">
          <mxGeometry x="231" y="268.5" width="40" height="20" as="geometry" />
        </mxCell>
        <mxCell id="BXD6T_1uRKeesXthLEPj-57" value="Temp Data Store" style="text;html=1;align=center;verticalAlign=middle;whiteSpace=wrap;rounded=0;fontSize=7;" parent="1" vertex="1">
          <mxGeometry x="365" y="200" width="40" height="20" as="geometry" />
        </mxCell>
        <mxCell id="BXD6T_1uRKeesXthLEPj-58" value="Services" style="text;html=1;align=center;verticalAlign=middle;whiteSpace=wrap;rounded=0;fontSize=7;" parent="1" vertex="1">
          <mxGeometry x="360" y="264" width="40" height="20" as="geometry" />
        </mxCell>
        <mxCell id="BXD6T_1uRKeesXthLEPj-59" value="API Gateway" style="text;html=1;align=center;verticalAlign=middle;whiteSpace=wrap;rounded=0;fontSize=7;" parent="1" vertex="1">
          <mxGeometry x="434.5" y="259.06" width="40" height="20" as="geometry" />
        </mxCell>
        <mxCell id="BXD6T_1uRKeesXthLEPj-61" value="1N" style="text;html=1;align=center;verticalAlign=middle;whiteSpace=wrap;rounded=0;fontSize=7;" parent="1" vertex="1">
          <mxGeometry x="533.5" y="252.06" width="40" height="20" as="geometry" />
        </mxCell>
        <mxCell id="1jBT1yOzD8v8w3udIk85-2" value="6E" style="text;html=1;align=center;verticalAlign=middle;whiteSpace=wrap;rounded=0;fontSize=7;" vertex="1" parent="1">
          <mxGeometry x="434.5" y="193.06" width="40" height="20" as="geometry" />
        </mxCell>
        <mxCell id="1jBT1yOzD8v8w3udIk85-3" value="QR" style="text;html=1;align=center;verticalAlign=middle;whiteSpace=wrap;rounded=0;fontSize=7;" vertex="1" parent="1">
          <mxGeometry x="282.5" y="182.06" width="40" height="20" as="geometry" />
        </mxCell>
        <mxCell id="1jBT1yOzD8v8w3udIk85-4" value="" style="rounded=0;whiteSpace=wrap;html=1;fillColor=#dae8fc;dashed=1;strokeColor=none;" vertex="1" parent="1">
          <mxGeometry x="408" y="30" width="180" height="130" as="geometry" />
        </mxCell>
        <mxCell id="1jBT1yOzD8v8w3udIk85-5" value="" style="rounded=0;whiteSpace=wrap;html=1;fillColor=#f5f5f5;dashed=1;strokeColor=#666666;fontColor=#333333;" vertex="1" parent="1">
          <mxGeometry x="522" y="40.5" width="60" height="110" as="geometry" />
        </mxCell>
        <mxCell id="1jBT1yOzD8v8w3udIk85-6" value="" style="sketch=0;outlineConnect=0;fontColor=#232F3E;gradientColor=none;fillColor=#232F3D;strokeColor=none;dashed=0;verticalLabelPosition=bottom;verticalAlign=top;align=center;html=1;fontSize=12;fontStyle=0;aspect=fixed;pointerEvents=1;shape=mxgraph.aws4.mobile_client;" vertex="1" parent="1">
          <mxGeometry x="268" y="57.71000000000001" width="15" height="28.58" as="geometry" />
        </mxCell>
        <mxCell id="1jBT1yOzD8v8w3udIk85-7" value="" style="rounded=0;whiteSpace=wrap;html=1;dashed=1;strokeColor=none;" vertex="1" parent="1">
          <mxGeometry x="138" y="30" width="270" height="130" as="geometry" />
        </mxCell>
        <mxCell id="1jBT1yOzD8v8w3udIk85-8" value="" style="image;aspect=fixed;html=1;points=[];align=center;fontSize=12;image=img/lib/azure2/other/Reserved_Capacity_Groups.svg;" vertex="1" parent="1">
          <mxGeometry x="152" y="44.74000000000001" width="36" height="42.26" as="geometry" />
        </mxCell>
        <mxCell id="1jBT1yOzD8v8w3udIk85-9" value="" style="image;sketch=0;aspect=fixed;html=1;points=[];align=center;fontSize=12;image=img/lib/mscae/App_Service_Mobile_App.svg;" vertex="1" parent="1">
          <mxGeometry x="160" y="120.57999999999998" width="18" height="26.48" as="geometry" />
        </mxCell>
        <mxCell id="1jBT1yOzD8v8w3udIk85-10" value="" style="sketch=0;html=1;aspect=fixed;strokeColor=none;shadow=0;fillColor=#3B8DF1;verticalAlign=top;labelPosition=center;verticalLabelPosition=bottom;shape=mxgraph.gcp2.gear_load" vertex="1" parent="1">
          <mxGeometry x="231" y="79" width="40" height="36.8" as="geometry" />
        </mxCell>
        <mxCell id="1jBT1yOzD8v8w3udIk85-11" value="" style="sketch=0;outlineConnect=0;fontColor=#232F3E;gradientColor=none;fillColor=#7AA116;strokeColor=none;dashed=0;verticalLabelPosition=bottom;verticalAlign=top;align=center;html=1;fontSize=12;fontStyle=0;aspect=fixed;pointerEvents=1;shape=mxgraph.aws4.iot_analytics_data_store;" vertex="1" parent="1">
          <mxGeometry x="325" y="38" width="27" height="39.03" as="geometry" />
        </mxCell>
        <mxCell id="1jBT1yOzD8v8w3udIk85-12" value="" style="outlineConnect=0;dashed=0;verticalLabelPosition=bottom;verticalAlign=top;align=center;html=1;shape=mxgraph.aws3.worker;fillColor=#D9A741;gradientColor=none;" vertex="1" parent="1">
          <mxGeometry x="320.5" y="112" width="36" height="40" as="geometry" />
        </mxCell>
        <mxCell id="1jBT1yOzD8v8w3udIk85-13" value="" style="sketch=0;points=[[0,0,0],[0.25,0,0],[0.5,0,0],[0.75,0,0],[1,0,0],[0,1,0],[0.25,1,0],[0.5,1,0],[0.75,1,0],[1,1,0],[0,0.25,0],[0,0.5,0],[0,0.75,0],[1,0.25,0],[1,0.5,0],[1,0.75,0]];outlineConnect=0;fontColor=#232F3E;fillColor=#8C4FFF;strokeColor=#ffffff;dashed=0;verticalLabelPosition=bottom;verticalAlign=top;align=center;html=1;fontSize=12;fontStyle=0;aspect=fixed;shape=mxgraph.aws4.resourceIcon;resIcon=mxgraph.aws4.api_gateway;" vertex="1" parent="1">
          <mxGeometry x="446" y="67" width="40" height="40" as="geometry" />
        </mxCell>
        <mxCell id="1jBT1yOzD8v8w3udIk85-14" value="" style="endArrow=classic;html=1;rounded=0;strokeColor=#050505;" edge="1" parent="1">
          <mxGeometry width="50" height="50" relative="1" as="geometry">
            <mxPoint x="169" y="117" as="sourcePoint" />
            <mxPoint x="169" y="89" as="targetPoint" />
          </mxGeometry>
        </mxCell>
        <mxCell id="1jBT1yOzD8v8w3udIk85-15" value="" style="endArrow=classic;html=1;rounded=0;entryX=0.265;entryY=0.313;entryDx=0;entryDy=0;entryPerimeter=0;strokeColor=#050505;" edge="1" parent="1">
          <mxGeometry width="50" height="50" relative="1" as="geometry">
            <mxPoint x="196" y="70" as="sourcePoint" />
            <mxPoint x="230" y="89" as="targetPoint" />
          </mxGeometry>
        </mxCell>
        <mxCell id="1jBT1yOzD8v8w3udIk85-16" value="" style="verticalLabelPosition=bottom;verticalAlign=top;html=1;shape=mxgraph.infographic.shadedCube;isoAngle=15;fillColor=#10739E;strokeColor=none;" vertex="1" parent="1">
          <mxGeometry x="534" y="66.4" width="40" height="40" as="geometry" />
        </mxCell>
        <mxCell id="1jBT1yOzD8v8w3udIk85-17" value="" style="endArrow=classic;html=1;rounded=0;entryX=0.265;entryY=0.313;entryDx=0;entryDy=0;entryPerimeter=0;strokeColor=#050505;" edge="1" parent="1">
          <mxGeometry width="50" height="50" relative="1" as="geometry">
            <mxPoint x="285" y="80" as="sourcePoint" />
            <mxPoint x="319" y="66" as="targetPoint" />
          </mxGeometry>
        </mxCell>
        <mxCell id="1jBT1yOzD8v8w3udIk85-18" value="" style="endArrow=classic;html=1;rounded=0;entryX=0.265;entryY=0.313;entryDx=0;entryDy=0;entryPerimeter=0;strokeColor=#050505;" edge="1" parent="1">
          <mxGeometry width="50" height="50" relative="1" as="geometry">
            <mxPoint x="284" y="105" as="sourcePoint" />
            <mxPoint x="318" y="114" as="targetPoint" />
          </mxGeometry>
        </mxCell>
        <mxCell id="1jBT1yOzD8v8w3udIk85-19" value="" style="endArrow=classic;html=1;rounded=0;entryX=0.265;entryY=0.313;entryDx=0;entryDy=0;entryPerimeter=0;strokeColor=#050505;" edge="1" parent="1">
          <mxGeometry width="50" height="50" relative="1" as="geometry">
            <mxPoint x="401" y="125" as="sourcePoint" />
            <mxPoint x="435" y="110" as="targetPoint" />
          </mxGeometry>
        </mxCell>
        <mxCell id="1jBT1yOzD8v8w3udIk85-20" value="" style="endArrow=classic;html=1;rounded=0;entryX=0.265;entryY=0.313;entryDx=0;entryDy=0;entryPerimeter=0;strokeColor=#050505;" edge="1" parent="1">
          <mxGeometry width="50" height="50" relative="1" as="geometry">
            <mxPoint x="494" y="87" as="sourcePoint" />
            <mxPoint x="528" y="87" as="targetPoint" />
          </mxGeometry>
        </mxCell>
        <mxCell id="1jBT1yOzD8v8w3udIk85-21" value="1A" style="text;html=1;align=center;verticalAlign=middle;whiteSpace=wrap;rounded=0;fontSize=7;" vertex="1" parent="1">
          <mxGeometry x="176" y="39.5" width="40" height="20" as="geometry" />
        </mxCell>
        <mxCell id="1jBT1yOzD8v8w3udIk85-22" value="Processor" style="text;html=1;align=center;verticalAlign=middle;whiteSpace=wrap;rounded=0;fontSize=7;" vertex="1" parent="1">
          <mxGeometry x="231" y="121.5" width="40" height="20" as="geometry" />
        </mxCell>
        <mxCell id="1jBT1yOzD8v8w3udIk85-23" value="Temp Data Store" style="text;html=1;align=center;verticalAlign=middle;whiteSpace=wrap;rounded=0;fontSize=7;" vertex="1" parent="1">
          <mxGeometry x="365" y="53" width="40" height="20" as="geometry" />
        </mxCell>
        <mxCell id="1jBT1yOzD8v8w3udIk85-24" value="Services" style="text;html=1;align=center;verticalAlign=middle;whiteSpace=wrap;rounded=0;fontSize=7;" vertex="1" parent="1">
          <mxGeometry x="360" y="117" width="40" height="20" as="geometry" />
        </mxCell>
        <mxCell id="1jBT1yOzD8v8w3udIk85-25" value="API Gateway" style="text;html=1;align=center;verticalAlign=middle;whiteSpace=wrap;rounded=0;fontSize=7;" vertex="1" parent="1">
          <mxGeometry x="446.5" y="112.06" width="40" height="20" as="geometry" />
        </mxCell>
        <mxCell id="1jBT1yOzD8v8w3udIk85-26" value="1N" style="text;html=1;align=center;verticalAlign=middle;whiteSpace=wrap;rounded=0;fontSize=7;" vertex="1" parent="1">
          <mxGeometry x="533.5" y="105.06" width="40" height="20" as="geometry" />
        </mxCell>
        <mxCell id="1jBT1yOzD8v8w3udIk85-27" value="QR" style="text;html=1;align=center;verticalAlign=middle;whiteSpace=wrap;rounded=0;fontSize=7;" vertex="1" parent="1">
          <mxGeometry x="230.5" y="36.06" width="40" height="20" as="geometry" />
        </mxCell>
        <mxCell id="1jBT1yOzD8v8w3udIk85-28" value="" style="rounded=0;whiteSpace=wrap;html=1;fillColor=none;dashed=1;strokeColor=#7EA6E0;" vertex="1" parent="1">
          <mxGeometry x="438" y="40" width="60" height="110" as="geometry" />
        </mxCell>
        <mxCell id="1jBT1yOzD8v8w3udIk85-29" value="6E" style="text;html=1;align=center;verticalAlign=middle;whiteSpace=wrap;rounded=0;fontSize=7;" vertex="1" parent="1">
          <mxGeometry x="445.5" y="45.06" width="40" height="20" as="geometry" />
        </mxCell>
      </root>
    </mxGraphModel>
  </diagram>
</mxfile>
